<?xml version="1.0" encoding="UTF-8" standalone="no"?>
<!DOCTYPE svg PUBLIC "-//W3C//DTD SVG 1.1//EN"
 "http://www.w3.org/Graphics/SVG/1.1/DTD/svg11.dtd">
<!-- Generated by graphviz version 14.1.4 (20260321.0153)
 -->
<!-- Title: ServiceCommunication Pages: 1 -->
<svg width="1569pt" height="598pt"
 viewBox="0.00 0.00 1569.00 598.00" xmlns="http://www.w3.org/2000/svg" xmlns:xlink="http://www.w3.org/1999/xlink">
<g id="graph0" class="graph" transform="scale(1 1) rotate(0) translate(25.2 572.95)">
<title>ServiceCommunication</title>
<polygon fill="white" stroke="none" points="-25.2,25.2 -25.2,-572.95 1543.65,-572.95 1543.65,25.2 -25.2,25.2"/>
<text xml:space="preserve" text-anchor="middle" x="759.22" y="-524.75" font-family="Helvetica,sans-Serif" font-size="20.00">Nimbus Services Communication</text>
<!-- user -->
<g id="node1" class="node">
<title>user</title>
<path fill="#e0f2fe" stroke="#334155" stroke-width="1.4" d="M110.04,-401C110.04,-401 12,-401 12,-401 6,-401 0,-395 0,-389 0,-389 0,-377 0,-377 0,-371 6,-365 12,-365 12,-365 110.04,-365 110.04,-365 116.04,-365 122.04,-371 122.04,-377 122.04,-377 122.04,-389 122.04,-389 122.04,-395 116.04,-401 110.04,-401"/>
<text xml:space="preserve" text-anchor="middle" x="61.02" y="-377.2" font-family="Helvetica,sans-Serif" font-size="14.00">User / UI / Client</text>
</g>
<!-- api -->
<g id="node2" class="node">
<title>api</title>
<path fill="#dbeafe" stroke="#334155" stroke-width="1.4" d="M394.83,-405.2C394.83,-405.2 232.29,-405.2 232.29,-405.2 226.29,-405.2 220.29,-399.2 220.29,-393.2 220.29,-393.2 220.29,-372.8 220.29,-372.8 220.29,-366.8 226.29,-360.8 232.29,-360.8 232.29,-360.8 394.83,-360.8 394.83,-360.8 400.83,-360.8 406.83,-366.8 406.83,-372.8 406.83,-372.8 406.83,-393.2 406.83,-393.2 406.83,-399.2 400.83,-405.2 394.83,-405.2"/>
<text xml:space="preserve" text-anchor="middle" x="313.56" y="-384.7" font-family="Helvetica,sans-Serif" font-size="14.00">Nimbus Fetch API</text>
<text xml:space="preserve" text-anchor="middle" x="313.56" y="-369.7" font-family="Helvetica,sans-Serif" font-size="14.00">nimbuschain_fetch_service</text>
</g>
<!-- user&#45;&gt;api -->
<g id="edge1" class="edge">
<title>user&#45;&gt;api</title>
<path fill="none" stroke="#475569" stroke-width="1.4" d="M122.48,-383C122.48,-383 209.58,-383 209.58,-383"/>
<polygon fill="#475569" stroke="#475569" stroke-width="1.4" points="209.58,-385.8 217.58,-383 209.58,-380.2 209.58,-385.8"/>
<text xml:space="preserve" text-anchor="middle" x="171.16" y="-384.35" font-family="Helvetica,sans-Serif" font-size="12.00">HTTP</text>
</g>
<!-- fetcher -->
<g id="node3" class="node">
<title>fetcher</title>
<path fill="#dbeafe" stroke="#334155" stroke-width="1.4" d="M732.12,-281.2C732.12,-281.2 594.33,-281.2 594.33,-281.2 588.33,-281.2 582.33,-275.2 582.33,-269.2 582.33,-269.2 582.33,-248.8 582.33,-248.8 582.33,-242.8 588.33,-236.8 594.33,-236.8 594.33,-236.8 732.12,-236.8 732.12,-236.8 738.12,-236.8 744.12,-242.8 744.12,-248.8 744.12,-248.8 744.12,-269.2 744.12,-269.2 744.12,-275.2 738.12,-281.2 732.12,-281.2"/>
<text xml:space="preserve" text-anchor="middle" x="663.22" y="-260.7" font-family="Helvetica,sans-Serif" font-size="14.00">Nimbus Fetch Runtime</text>
<text xml:space="preserve" text-anchor="middle" x="663.22" y="-245.7" font-family="Helvetica,sans-Serif" font-size="14.00">nimbuschain_fetch</text>
</g>
<!-- api&#45;&gt;fetcher -->
<g id="edge2" class="edge">
<title>api&#45;&gt;fetcher</title>
<path fill="none" stroke="#475569" stroke-width="1.4" d="M407.39,-374.3C502.72,-374.3 636.45,-374.3 636.45,-374.3 636.45,-374.3 636.45,-291.9 636.45,-291.9"/>
<polygon fill="#475569" stroke="#475569" stroke-width="1.4" points="639.25,-291.9 636.45,-283.9 633.65,-291.9 639.25,-291.9"/>
<text xml:space="preserve" text-anchor="middle" x="494.58" y="-371.1" font-family="Helvetica,sans-Serif" font-size="12.00">job submission</text>
<text xml:space="preserve" text-anchor="middle" x="494.58" y="-358.35" font-family="Helvetica,sans-Serif" font-size="12.00">status / orchestration</text>
</g>
<!-- contracts -->
<g id="node8" class="node">
<title>contracts</title>
<path fill="#ede9fe" stroke="#334155" stroke-width="1.4" d="M1506.45,-432.2C1506.45,-432.2 1310.91,-432.2 1310.91,-432.2 1304.91,-432.2 1298.91,-426.2 1298.91,-420.2 1298.91,-420.2 1298.91,-399.8 1298.91,-399.8 1298.91,-393.8 1304.91,-387.8 1310.91,-387.8 1310.91,-387.8 1506.45,-387.8 1506.45,-387.8 1512.45,-387.8 1518.45,-393.8 1518.45,-399.8 1518.45,-399.8 1518.45,-420.2 1518.45,-420.2 1518.45,-426.2 1512.45,-432.2 1506.45,-432.2"/>
<text xml:space="preserve" text-anchor="middle" x="1408.68" y="-411.7" font-family="Helvetica,sans-Serif" font-size="14.00">nimbuschain_shared</text>
<text xml:space="preserve" text-anchor="middle" x="1408.68" y="-396.7" font-family="Helvetica,sans-Serif" font-size="14.00">contracts + clients + conventions</text>
</g>
<!-- api&#45;&gt;contracts -->
<g id="edge14" class="edge">
<title>api&#45;&gt;contracts</title>
<path fill="none" stroke="#475569" stroke-width="1.4" stroke-dasharray="5,2" d="M407.4,-401.72C407.4,-401.72 1288.27,-401.72 1288.27,-401.72"/>
<polygon fill="#475569" stroke="#475569" stroke-width="1.4" points="1288.27,-404.52 1296.27,-401.72 1288.27,-398.92 1288.27,-404.52"/>
<text xml:space="preserve" text-anchor="middle" x="835.24" y="-507.35" font-family="Helvetica,sans-Serif" font-size="12.00">uses shared contracts</text>
</g>
<!-- providers -->
<g id="node4" class="node">
<title>providers</title>
<path fill="#fce7f3" stroke="#334155" stroke-width="1.4" d="M1080.28,-352.2C1080.28,-352.2 962.74,-352.2 962.74,-352.2 956.74,-352.2 950.74,-346.2 950.74,-340.2 950.74,-340.2 950.74,-319.8 950.74,-319.8 950.74,-313.8 956.74,-307.8 962.74,-307.8 962.74,-307.8 1080.28,-307.8 1080.28,-307.8 1086.28,-307.8 1092.28,-313.8 1092.28,-319.8 1092.28,-319.8 1092.28,-340.2 1092.28,-340.2 1092.28,-346.2 1086.28,-352.2 1080.28,-352.2"/>
<text xml:space="preserve" text-anchor="middle" x="1021.51" y="-331.7" font-family="Helvetica,sans-Serif" font-size="14.00">External Providers</text>
<text xml:space="preserve" text-anchor="middle" x="1021.51" y="-316.7" font-family="Helvetica,sans-Serif" font-size="14.00">Copernicus / USGS</text>
</g>
<!-- fetcher&#45;&gt;providers -->
<g id="edge3" class="edge">
<title>fetcher&#45;&gt;providers</title>
<path fill="none" stroke="#475569" stroke-width="1.4" d="M744.75,-272.53C857.01,-272.53 1045.45,-272.53 1045.45,-272.53 1045.45,-272.53 1045.45,-297.17 1045.45,-297.17"/>
<polygon fill="#475569" stroke="#475569" stroke-width="1.4" points="1042.65,-297.17 1045.45,-305.17 1048.25,-297.17 1042.65,-297.17"/>
<text xml:space="preserve" text-anchor="middle" x="835.24" y="-389.35" font-family="Helvetica,sans-Serif" font-size="12.00">search + download</text>
</g>
<!-- zarr -->
<g id="node5" class="node">
<title>zarr</title>
<path fill="#dcfce7" stroke="#334155" stroke-width="1.4" d="M1099.78,-268.2C1099.78,-268.2 943.24,-268.2 943.24,-268.2 937.24,-268.2 931.24,-262.2 931.24,-256.2 931.24,-256.2 931.24,-235.8 931.24,-235.8 931.24,-229.8 937.24,-223.8 943.24,-223.8 943.24,-223.8 1099.78,-223.8 1099.78,-223.8 1105.78,-223.8 1111.78,-229.8 1111.78,-235.8 1111.78,-235.8 1111.78,-256.2 1111.78,-256.2 1111.78,-262.2 1105.78,-268.2 1099.78,-268.2"/>
<text xml:space="preserve" text-anchor="middle" x="1021.51" y="-247.7" font-family="Helvetica,sans-Serif" font-size="14.00">Nimbus Zarr Service</text>
<text xml:space="preserve" text-anchor="middle" x="1021.51" y="-232.7" font-family="Helvetica,sans-Serif" font-size="14.00">nimbuschain_zarr_service</text>
</g>
<!-- fetcher&#45;&gt;zarr -->
<g id="edge6" class="edge">
<title>fetcher&#45;&gt;zarr</title>
<path fill="none" stroke="#475569" stroke-width="1.4" d="M744.53,-257.73C744.53,-257.73 920.65,-257.73 920.65,-257.73"/>
<polygon fill="#475569" stroke="#475569" stroke-width="1.4" points="920.65,-260.53 928.65,-257.73 920.65,-254.93 920.65,-260.53"/>
<text xml:space="preserve" text-anchor="middle" x="835.24" y="-273.1" font-family="Helvetica,sans-Serif" font-size="12.00">HTTP /convert</text>
<text xml:space="preserve" text-anchor="middle" x="835.24" y="-260.35" font-family="Helvetica,sans-Serif" font-size="12.00">ConvertRequest</text>
</g>
<!-- mask -->
<g id="node6" class="node">
<title>mask</title>
<path fill="#fef3c7" stroke="#334155" stroke-width="1.4" d="M1104.66,-159.2C1104.66,-159.2 938.37,-159.2 938.37,-159.2 932.37,-159.2 926.37,-153.2 926.37,-147.2 926.37,-147.2 926.37,-126.8 926.37,-126.8 926.37,-120.8 932.37,-114.8 938.37,-114.8 938.37,-114.8 1104.66,-114.8 1104.66,-114.8 1110.66,-114.8 1116.66,-120.8 1116.66,-126.8 1116.66,-126.8 1116.66,-147.2 1116.66,-147.2 1116.66,-153.2 1110.66,-159.2 1104.66,-159.2"/>
<text xml:space="preserve" text-anchor="middle" x="1021.51" y="-138.7" font-family="Helvetica,sans-Serif" font-size="14.00">Nimbus Mask Service</text>
<text xml:space="preserve" text-anchor="middle" x="1021.51" y="-123.7" font-family="Helvetica,sans-Serif" font-size="14.00">nimbuschain_mask_service</text>
</g>
<!-- fetcher&#45;&gt;mask -->
<g id="edge10" class="edge">
<title>fetcher&#45;&gt;mask</title>
<path fill="none" stroke="#475569" stroke-width="1.4" d="M622.45,-236.16C622.45,-199.02 622.45,-129.6 622.45,-129.6 622.45,-129.6 915.56,-129.6 915.56,-129.6"/>
<polygon fill="#475569" stroke="#475569" stroke-width="1.4" points="915.56,-132.4 923.56,-129.6 915.56,-126.8 915.56,-132.4"/>
<text xml:space="preserve" text-anchor="middle" x="835.24" y="-86.1" font-family="Helvetica,sans-Serif" font-size="12.00">HTTP /apply</text>
<text xml:space="preserve" text-anchor="middle" x="835.24" y="-73.35" font-family="Helvetica,sans-Serif" font-size="12.00">MaskApplyRequest</text>
</g>
<!-- shared -->
<g id="node7" class="node">
<title>shared</title>
<path fill="#f1f5f9" stroke="#334155" stroke-width="1.4" d="M1515.82,-161.97C1515.82,-165.04 1467.8,-167.53 1408.68,-167.53 1349.56,-167.53 1301.53,-165.04 1301.53,-161.97 1301.53,-161.97 1301.53,-112.03 1301.53,-112.03 1301.53,-108.96 1349.56,-106.47 1408.68,-106.47 1467.8,-106.47 1515.82,-108.96 1515.82,-112.03 1515.82,-112.03 1515.82,-161.97 1515.82,-161.97"/>
<path fill="none" stroke="#334155" stroke-width="1.4" d="M1515.82,-161.97C1515.82,-158.91 1467.8,-156.42 1408.68,-156.42 1349.56,-156.42 1301.53,-158.91 1301.53,-161.97"/>
<text xml:space="preserve" text-anchor="middle" x="1408.68" y="-138.7" font-family="Helvetica,sans-Serif" font-size="14.00">Shared Storage / Artifacts</text>
<text xml:space="preserve" text-anchor="middle" x="1408.68" y="-123.7" font-family="Helvetica,sans-Serif" font-size="14.00">raw bundles, zarr stores, masks</text>
</g>
<!-- fetcher&#45;&gt;shared -->
<g id="edge5" class="edge">
<title>fetcher&#45;&gt;shared</title>
<path fill="none" stroke="#475569" stroke-width="1.4" d="M703.45,-236.34C703.45,-207.47 703.45,-161.28 703.45,-161.28 703.45,-161.28 1291.07,-161.28 1291.07,-161.28"/>
<polygon fill="#475569" stroke="#475569" stroke-width="1.4" points="1291.07,-164.08 1299.07,-161.28 1291.07,-158.48 1291.07,-164.08"/>
<text xml:space="preserve" text-anchor="middle" x="1021.51" y="-14.1" font-family="Helvetica,sans-Serif" font-size="12.00">persist raw bundle</text>
<text xml:space="preserve" text-anchor="middle" x="1021.51" y="-1.35" font-family="Helvetica,sans-Serif" font-size="12.00">artifact metadata</text>
</g>
<!-- fetcher&#45;&gt;contracts -->
<g id="edge15" class="edge">
<title>fetcher&#45;&gt;contracts</title>
<path fill="none" stroke="#475569" stroke-width="1.4" stroke-dasharray="5,2" d="M690.45,-281.68C690.45,-321.14 690.45,-398.24 690.45,-398.24 690.45,-398.24 1288.3,-398.24 1288.3,-398.24"/>
<polygon fill="#475569" stroke="#475569" stroke-width="1.4" points="1288.3,-401.04 1296.3,-398.24 1288.3,-395.44 1288.3,-401.04"/>
<text xml:space="preserve" text-anchor="middle" x="1021.51" y="-433.35" font-family="Helvetica,sans-Serif" font-size="12.00">uses shared clients / models</text>
</g>
<!-- providers&#45;&gt;fetcher -->
<g id="edge4" class="edge">
<title>providers&#45;&gt;fetcher</title>
<path fill="none" stroke="#475569" stroke-width="1.4" d="M997.45,-307.16C997.45,-292.76 997.45,-276.87 997.45,-276.87 997.45,-276.87 754.68,-276.87 754.68,-276.87"/>
<polygon fill="#475569" stroke="#475569" stroke-width="1.4" points="754.68,-274.07 746.68,-276.87 754.68,-279.67 754.68,-274.07"/>
<text xml:space="preserve" text-anchor="middle" x="835.24" y="-331.35" font-family="Helvetica,sans-Serif" font-size="12.00">raw product bundles</text>
</g>
<!-- zarr&#45;&gt;fetcher -->
<g id="edge9" class="edge">
<title>zarr&#45;&gt;fetcher</title>
<path fill="none" stroke="#475569" stroke-width="1.4" d="M930.64,-247.27C930.64,-247.27 754.64,-247.27 754.64,-247.27"/>
<polygon fill="#475569" stroke="#475569" stroke-width="1.4" points="754.64,-244.47 746.64,-247.27 754.64,-250.07 754.64,-244.47"/>
<text xml:space="preserve" text-anchor="middle" x="835.24" y="-202.35" font-family="Helvetica,sans-Serif" font-size="12.00">ConvertResponse</text>
</g>
<!-- zarr&#45;&gt;shared -->
<g id="edge7" class="edge">
<title>zarr&#45;&gt;shared</title>
<path fill="none" stroke="#475569" stroke-width="1.4" d="M1051.45,-223.13C1051.45,-199.32 1051.45,-165.44 1051.45,-165.44 1051.45,-165.44 1290.9,-165.44 1290.9,-165.44"/>
<polygon fill="#475569" stroke="#475569" stroke-width="1.4" points="1290.9,-168.24 1298.9,-165.44 1290.9,-162.64 1290.9,-168.24"/>
<text xml:space="preserve" text-anchor="middle" x="1207.78" y="-325.35" font-family="Helvetica,sans-Serif" font-size="12.00">read raw_uri</text>
</g>
<!-- zarr&#45;&gt;shared -->
<g id="edge8" class="edge">
<title>zarr&#45;&gt;shared</title>
<path fill="none" stroke="#475569" stroke-width="1.4" d="M991.45,-223.42C991.45,-198.95 991.45,-163.36 991.45,-163.36 991.45,-163.36 1290.84,-163.36 1290.84,-163.36"/>
<polygon fill="#475569" stroke="#475569" stroke-width="1.4" points="1290.84,-166.16 1298.84,-163.36 1290.84,-160.56 1290.84,-166.16"/>
<text xml:space="preserve" text-anchor="middle" x="1207.78" y="-267.1" font-family="Helvetica,sans-Serif" font-size="12.00">write zarr_uri</text>
<text xml:space="preserve" text-anchor="middle" x="1207.78" y="-254.35" font-family="Helvetica,sans-Serif" font-size="12.00">+ dataset summary</text>
</g>
<!-- zarr&#45;&gt;contracts -->
<g id="edge16" class="edge">
<title>zarr&#45;&gt;contracts</title>
<path fill="none" stroke="#475569" stroke-width="1.4" stroke-dasharray="5,2" d="M1102.45,-268.59C1102.45,-310.21 1102.45,-394.76 1102.45,-394.76 1102.45,-394.76 1288.44,-394.76 1288.44,-394.76"/>
<polygon fill="#475569" stroke="#475569" stroke-width="1.4" points="1288.44,-397.56 1296.44,-394.76 1288.44,-391.96 1288.44,-397.56"/>
<text xml:space="preserve" text-anchor="middle" x="1207.78" y="-389.35" font-family="Helvetica,sans-Serif" font-size="12.00">uses shared contracts</text>
</g>
<!-- mask&#45;&gt;fetcher -->
<g id="edge13" class="edge">
<title>mask&#45;&gt;fetcher</title>
<path fill="none" stroke="#475569" stroke-width="1.4" d="M926.03,-144.4C819.96,-144.4 663.45,-144.4 663.45,-144.4 663.45,-144.4 663.45,-226.24 663.45,-226.24"/>
<polygon fill="#475569" stroke="#475569" stroke-width="1.4" points="660.65,-226.24 663.45,-234.24 666.25,-226.24 660.65,-226.24"/>
<text xml:space="preserve" text-anchor="middle" x="835.24" y="-144.35" font-family="Helvetica,sans-Serif" font-size="12.00">mask result payload</text>
</g>
<!-- mask&#45;&gt;shared -->
<g id="edge11" class="edge">
<title>mask&#45;&gt;shared</title>
<path fill="none" stroke="#475569" stroke-width="1.4" d="M1117.22,-148.1C1117.22,-148.1 1290.99,-148.1 1290.99,-148.1"/>
<polygon fill="#475569" stroke="#475569" stroke-width="1.4" points="1290.99,-150.9 1298.99,-148.1 1290.99,-145.3 1290.99,-150.9"/>
<text xml:space="preserve" text-anchor="middle" x="1207.78" y="-138.35" font-family="Helvetica,sans-Serif" font-size="12.00">read source_zarr_uri</text>
</g>
<!-- mask&#45;&gt;shared -->
<g id="edge12" class="edge">
<title>mask&#45;&gt;shared</title>
<path fill="none" stroke="#475569" stroke-width="1.4" d="M1117.22,-137C1117.22,-137 1290.99,-137 1290.99,-137"/>
<polygon fill="#475569" stroke="#475569" stroke-width="1.4" points="1290.99,-139.8 1298.99,-137 1290.99,-134.2 1290.99,-139.8"/>
<text xml:space="preserve" text-anchor="middle" x="1207.78" y="-80.1" font-family="Helvetica,sans-Serif" font-size="12.00">write cloud/water</text>
<text xml:space="preserve" text-anchor="middle" x="1207.78" y="-67.35" font-family="Helvetica,sans-Serif" font-size="12.00">mask layers</text>
</g>
<!-- mask&#45;&gt;contracts -->
<g id="edge17" class="edge">
<title>mask&#45;&gt;contracts</title>
<path fill="none" stroke="#475569" stroke-width="1.4" stroke-dasharray="5,2" d="M1117.21,-125.9C1162.76,-125.9 1207.45,-125.9 1207.45,-125.9 1207.45,-125.9 1207.45,-391.28 1207.45,-391.28 1207.45,-391.28 1288.23,-391.28 1288.23,-391.28"/>
<polygon fill="#475569" stroke="#475569" stroke-width="1.4" points="1288.23,-394.08 1296.23,-391.28 1288.23,-388.48 1288.23,-394.08"/>
<text xml:space="preserve" text-anchor="middle" x="1207.78" y="-196.35" font-family="Helvetica,sans-Serif" font-size="12.00">uses shared contracts</text>
</g>
</g>
</svg>
